<?xml version="1.0" encoding="UTF-8" standalone="no"?>
<!-- Created with Inkscape (http://www.inkscape.org/) -->

<svg
   xmlns:dc="http://purl.org/dc/elements/1.1/"
   xmlns:cc="http://creativecommons.org/ns#"
   xmlns:rdf="http://www.w3.org/1999/02/22-rdf-syntax-ns#"
   xmlns:svg="http://www.w3.org/2000/svg"
   xmlns="http://www.w3.org/2000/svg"
   xmlns:sodipodi="http://sodipodi.sourceforge.net/DTD/sodipodi-0.dtd"
   xmlns:inkscape="http://www.inkscape.org/namespaces/inkscape"
   width="210mm"
   height="297mm"
   viewBox="0 0 744.09448819 1052.3622047"
   id="svg2"
   version="1.1"
   inkscape:version="0.91 r13725"
   sodipodi:docname="revenue-bot.svg">
  <defs
     id="defs4" />
  <sodipodi:namedview
     id="base"
     pagecolor="#ffffff"
     bordercolor="#666666"
     borderopacity="1.0"
     inkscape:pageopacity="0.0"
     inkscape:pageshadow="2"
     inkscape:zoom="0.9899495"
     inkscape:cx="80.100075"
     inkscape:cy="745.30045"
     inkscape:document-units="px"
     inkscape:current-layer="layer1"
     showgrid="false"
     inkscape:object-paths="true"
     inkscape:snap-intersection-paths="true"
     inkscape:object-nodes="true"
     inkscape:snap-smooth-nodes="true"
     inkscape:snap-midpoints="true"
     inkscape:snap-bbox="true"
     inkscape:snap-object-midpoints="true"
     inkscape:window-width="1600"
     inkscape:window-height="837"
     inkscape:window-x="-8"
     inkscape:window-y="-8"
     inkscape:window-maximized="1" />
  <metadata
     id="metadata7">
    <rdf:RDF>
      <cc:Work
         rdf:about="">
        <dc:format>image/svg+xml</dc:format>
        <dc:type
           rdf:resource="http://purl.org/dc/dcmitype/StillImage" />
        <dc:title />
      </cc:Work>
    </rdf:RDF>
  </metadata>
  <g
     inkscape:label="Layer 1"
     inkscape:groupmode="layer"
     id="layer1">
    <g
       id="g7229">
      <rect
         rx="87.067947"
         y="104.50506"
         x="189.28571"
         height="243.57143"
         width="277.14288"
         id="rect4138"
         style="opacity:1;fill:#ca557f;fill-opacity:1;fill-rule:nonzero;stroke:none;stroke-width:12.69799995;stroke-miterlimit:4;stroke-dasharray:none;stroke-opacity:1" />
      <g
         id="g4409">
        <circle
           style="opacity:1;fill:#bc3a69;fill-opacity:1;fill-rule:nonzero;stroke:none;stroke-width:12.69799995;stroke-miterlimit:4;stroke-dasharray:none;stroke-opacity:1"
           id="path4140-4"
           cx="270.99829"
           cy="177.48021"
           r="35.484894" />
        <circle
           style="opacity:1;fill:#ffffff;fill-opacity:1;fill-rule:nonzero;stroke:none;stroke-width:12.69799995;stroke-miterlimit:4;stroke-dasharray:none;stroke-opacity:1"
           id="path4140"
           cx="270.99829"
           cy="175.15605"
           r="33.617268" />
        <circle
           style="opacity:1;fill:#bc3a69;fill-opacity:1;fill-rule:nonzero;stroke:none;stroke-width:12.69799995;stroke-miterlimit:4;stroke-dasharray:none;stroke-opacity:1"
           id="path4140-4-5"
           cx="384.716"
           cy="177.48021"
           r="35.484894" />
        <circle
           style="opacity:1;fill:#ffffff;fill-opacity:1;fill-rule:nonzero;stroke:none;stroke-width:12.69799995;stroke-miterlimit:4;stroke-dasharray:none;stroke-opacity:1"
           id="path4140-6"
           cx="384.716"
           cy="175.15605"
           r="33.617268" />
        <circle
           style="opacity:1;fill:#00aa88;fill-opacity:1;fill-rule:nonzero;stroke:none;stroke-width:12.69799995;stroke-miterlimit:4;stroke-dasharray:none;stroke-opacity:1"
           id="path4140-8"
           cx="277.97076"
           cy="184.45268"
           r="19.091288" />
        <circle
           style="opacity:1;fill:#00aa88;fill-opacity:1;fill-rule:nonzero;stroke:none;stroke-width:12.69799995;stroke-miterlimit:4;stroke-dasharray:none;stroke-opacity:1"
           id="path4140-8-0"
           cx="394.0126"
           cy="182.12852"
           r="19.091288" />
        <circle
           style="opacity:1;fill:#e3f4d7;fill-opacity:1;fill-rule:nonzero;stroke:none;stroke-width:12.69799995;stroke-miterlimit:4;stroke-dasharray:none;stroke-opacity:1"
           id="path4140-8-4"
           cx="282.61908"
           cy="189.101"
           r="9.1306162" />
        <circle
           style="opacity:1;fill:#e3f4d7;fill-opacity:1;fill-rule:nonzero;stroke:none;stroke-width:12.69799995;stroke-miterlimit:4;stroke-dasharray:none;stroke-opacity:1"
           id="path4140-8-4-0"
           cx="389.36432"
           cy="186.77684"
           r="9.1306162" />
        <ellipse
           style="opacity:1;fill:#ffffff;fill-opacity:1;fill-rule:nonzero;stroke:none;stroke-width:12.69799995;stroke-miterlimit:4;stroke-dasharray:none;stroke-opacity:1"
           id="path4140-8-4-4"
           cx="282.61908"
           cy="186.77684"
           rx="7.1073546"
           ry="6.1216626" />
        <ellipse
           style="opacity:1;fill:#ffffff;fill-opacity:1;fill-rule:nonzero;stroke:none;stroke-width:12.69799995;stroke-miterlimit:4;stroke-dasharray:none;stroke-opacity:1"
           id="path4140-8-4-4-9"
           cx="389.36432"
           cy="184.45268"
           rx="7.1073546"
           ry="6.1216626" />
      </g>
      <g
         id="text4329-8"
         style="font-style:normal;font-weight:normal;font-size:40px;line-height:125%;font-family:sans-serif;letter-spacing:0px;word-spacing:0px;fill:#bc3a69;fill-opacity:1;stroke:none;stroke-width:1px;stroke-linecap:butt;stroke-linejoin:miter;stroke-opacity:1"
         transform="matrix(0,1.0446754,-1.0446754,0,-14.647152,-10.349054)">
        <path
           id="path4334-0"
           style="font-style:normal;font-variant:normal;font-weight:normal;font-stretch:normal;font-size:152.5px;font-family:Governor;-inkscape-font-specification:Governor;fill:#bc3a69;fill-opacity:1"
           d="m 309.85963,-310.91684 q 0,11.54175 -9.01001,19.21143 -9.01001,7.59521 -23.60473,9.01001 l 0,26.95556 -8.78662,0 0,-26.58325 q -9.8291,-0.0745 -18.4668,-1.86157 -8.63769,-1.86157 -14.96704,-4.76563 l 0,-14.74365 1.19141,0 q 1.41479,1.04248 5.06347,3.05298 3.64868,1.93603 7.07398,3.2019 3.87207,1.4148 9.01001,2.68067 5.2124,1.1914 11.09497,1.41479 l 0,-32.24243 q -2.97852,-0.5957 -5.51026,-1.11694 -2.53173,-0.59571 -4.69116,-1.19141 -12.13745,-3.05298 -17.42432,-9.15893 -5.28686,-6.18042 -5.28686,-15.19043 0,-11.02051 8.63769,-18.61573 8.71216,-7.59521 24.27491,-8.86108 l 0,-20.25391 8.78662,0 0,20.10498 q 7.52075,0.14893 15.41382,1.78711 7.89306,1.63819 13.25439,3.79761 l 0,14.59473 -1.04248,0 q -5.58472,-3.4253 -11.69067,-6.0315 -6.0315,-2.68066 -15.93506,-3.35083 l 0,32.09351 q 2.23389,0.37231 4.84009,1.04248 2.6062,0.5957 4.54223,0.96802 11.09497,2.38281 17.12647,8.19091 6.10595,5.80811 6.10595,15.8606 z m -41.40136,-27.32788 0,-30.75317 q -7.96753,0.5957 -13.40332,4.39331 -5.43579,3.72314 -5.43579,10.4248 0,6.77612 4.02099,10.20142 4.021,3.42529 14.81812,5.73364 z m 27.32788,29.26392 q 0,-6.99952 -4.39331,-10.20142 -4.31885,-3.27637 -14.14795,-5.13794 l 0,30.82764 q 8.93555,-0.89356 13.70117,-4.54224 4.84009,-3.64868 4.84009,-10.94604 z"
           inkscape:connector-curvature="0" />
      </g>
      <g
         id="text4329"
         style="font-style:normal;font-weight:normal;font-size:40px;line-height:125%;font-family:sans-serif;letter-spacing:0px;word-spacing:0px;fill:#a1db77;fill-opacity:1;stroke:none;stroke-width:1px;stroke-linecap:butt;stroke-linejoin:miter;stroke-opacity:1"
         transform="matrix(0,1,-1,0,-2.8e-6,0)">
        <path
           inkscape:connector-curvature="0"
           id="path4334"
           style="font-style:normal;font-variant:normal;font-weight:normal;font-stretch:normal;font-size:152.5px;font-family:Governor;-inkscape-font-specification:Governor;fill:#a1db77;fill-opacity:1"
           d="m 309.85963,-310.91684 q 0,11.54175 -9.01001,19.21143 -9.01001,7.59521 -23.60473,9.01001 l 0,26.95556 -8.78662,0 0,-26.58325 q -9.8291,-0.0745 -18.4668,-1.86157 -8.63769,-1.86157 -14.96704,-4.76563 l 0,-14.74365 1.19141,0 q 1.41479,1.04248 5.06347,3.05298 3.64868,1.93603 7.07398,3.2019 3.87207,1.4148 9.01001,2.68067 5.2124,1.1914 11.09497,1.41479 l 0,-32.24243 q -2.97852,-0.5957 -5.51026,-1.11694 -2.53173,-0.59571 -4.69116,-1.19141 -12.13745,-3.05298 -17.42432,-9.15893 -5.28686,-6.18042 -5.28686,-15.19043 0,-11.02051 8.63769,-18.61573 8.71216,-7.59521 24.27491,-8.86108 l 0,-20.25391 8.78662,0 0,20.10498 q 7.52075,0.14893 15.41382,1.78711 7.89306,1.63819 13.25439,3.79761 l 0,14.59473 -1.04248,0 q -5.58472,-3.4253 -11.69067,-6.0315 -6.0315,-2.68066 -15.93506,-3.35083 l 0,32.09351 q 2.23389,0.37231 4.84009,1.04248 2.6062,0.5957 4.54223,0.96802 11.09497,2.38281 17.12647,8.19091 6.10595,5.80811 6.10595,15.8606 z m -41.40136,-27.32788 0,-30.75317 q -7.96753,0.5957 -13.40332,4.39331 -5.43579,3.72314 -5.43579,10.4248 0,6.77612 4.02099,10.20142 4.021,3.42529 14.81812,5.73364 z m 27.32788,29.26392 q 0,-6.99952 -4.39331,-10.20142 -4.31885,-3.27637 -14.14795,-5.13794 l 0,30.82764 q 8.93555,-0.89356 13.70117,-4.54224 4.84009,-3.64868 4.84009,-10.94604 z" />
      </g>
    </g>
  </g>
</svg>
