<?xml version="1.0" encoding="UTF-8" standalone="no"?>
<!-- Created with Inkscape (http://www.inkscape.org/) -->

<svg
   xmlns:dc="http://purl.org/dc/elements/1.1/"
   xmlns:cc="http://creativecommons.org/ns#"
   xmlns:rdf="http://www.w3.org/1999/02/22-rdf-syntax-ns#"
   xmlns:svg="http://www.w3.org/2000/svg"
   xmlns="http://www.w3.org/2000/svg"
   xmlns:xlink="http://www.w3.org/1999/xlink"
   xmlns:sodipodi="http://sodipodi.sourceforge.net/DTD/sodipodi-0.dtd"
   xmlns:inkscape="http://www.inkscape.org/namespaces/inkscape"
   width="744.09448819"
   height="1052.3622047"
   id="svg2985"
   version="1.1"
   inkscape:version="0.48.5 r10040"
   sodipodi:docname="bot3.svg">
  <defs
     id="defs2987">
    <inkscape:path-effect
       effect="gears"
       id="path-effect3168"
       is_visible="true"
       teeth="10"
       phi="5" />
    <inkscape:path-effect
       effect="spiro"
       id="path-effect3164"
       is_visible="true" />
    <inkscape:path-effect
       effect="spiro"
       id="path-effect3122"
       is_visible="true" />
    <inkscape:path-effect
       phi="1"
       teeth="10"
       is_visible="true"
       id="path-effect4432"
       effect="gears" />
    <inkscape:path-effect
       is_visible="true"
       id="path-effect4430"
       effect="spiro" />
    <inkscape:path-effect
       effect="gears"
       id="path-effect3636"
       is_visible="true"
       teeth="10"
       phi="1" />
    <inkscape:path-effect
       effect="spiro"
       id="path-effect3634"
       is_visible="true" />
    <inkscape:path-effect
       effect="gears"
       id="path-effect3601"
       is_visible="true"
       teeth="10"
       phi="5" />
    <inkscape:path-effect
       effect="spiro"
       id="path-effect3599"
       is_visible="true" />
    <linearGradient
       inkscape:collect="always"
       id="linearGradient4275">
      <stop
         style="stop-color:#4d4d4d;stop-opacity:1;"
         offset="0"
         id="stop4277" />
      <stop
         style="stop-color:#4d4d4d;stop-opacity:0;"
         offset="1"
         id="stop4279" />
    </linearGradient>
    <inkscape:path-effect
       effect="spiro"
       id="path-effect4011"
       is_visible="true" />
    <inkscape:path-effect
       effect="spiro"
       id="path-effect4135"
       is_visible="true" />
    <inkscape:path-effect
       effect="spiro"
       id="path-effect4135-1"
       is_visible="true" />
    <inkscape:path-effect
       effect="spiro"
       id="path-effect4135-2"
       is_visible="true" />
    <inkscape:path-effect
       effect="spiro"
       id="path-effect4135-22"
       is_visible="true" />
    <linearGradient
       inkscape:collect="always"
       xlink:href="#linearGradient4275"
       id="linearGradient3499"
       gradientUnits="userSpaceOnUse"
       gradientTransform="matrix(0.75664934,0,0,0.75664934,356.55187,-397.50026)"
       x1="-17.5"
       y1="950.57648"
       x2="146.78572"
       y2="1039.505" />
    <inkscape:path-effect
       effect="spiro"
       id="path-effect3634-1"
       is_visible="true" />
    <inkscape:path-effect
       effect="gears"
       id="path-effect3636-7"
       is_visible="true"
       teeth="10"
       phi="15" />
  </defs>
  <sodipodi:namedview
     id="base"
     pagecolor="#ffffff"
     bordercolor="#ffffff"
     borderopacity="0.0"
     inkscape:pageopacity="0.0"
     inkscape:pageshadow="0"
     inkscape:zoom="1.4142136"
     inkscape:cx="458.29435"
     inkscape:cy="764.52683"
     inkscape:document-units="px"
     inkscape:current-layer="layer1"
     showgrid="true"
     showguides="false"
     inkscape:window-width="1440"
     inkscape:window-height="757"
     inkscape:window-x="-8"
     inkscape:window-y="-8"
     inkscape:window-maximized="1"
     inkscape:snap-grids="false">
    <inkscape:grid
       type="xygrid"
       id="grid3423" />
  </sodipodi:namedview>
  <metadata
     id="metadata2990">
    <rdf:RDF>
      <cc:Work
         rdf:about="">
        <dc:format>image/svg+xml</dc:format>
        <dc:type
           rdf:resource="http://purl.org/dc/dcmitype/StillImage" />
        <dc:title></dc:title>
      </cc:Work>
    </rdf:RDF>
  </metadata>
  <g
     inkscape:groupmode="layer"
     id="layer3"
     inkscape:label="Layer#1">
    <rect
       style="opacity:0.95999995;color:#000000;fill:#ffcc00;fill-opacity:1;fill-rule:nonzero;stroke:none;stroke-width:1px;marker:none;visibility:visible;display:inline;overflow:visible;enable-background:accumulate"
       id="rect4038"
       width="83.656532"
       height="32.812283"
       x="359.60815"
       y="350.20251" />
  </g>
  <g
     inkscape:groupmode="layer"
     id="layer2"
     inkscape:label="Layer">
    <path
       style="fill:#e6e6e6;stroke:#000000;stroke-width:1.37988949;stroke-linecap:butt;stroke-linejoin:miter;stroke-miterlimit:4;stroke-opacity:1;stroke-dasharray:none"
       d="m 369.03152,376.08271 c 0,0 -0.67935,0.47785 -2.18209,0.44298 -0.3332,-0.52189 -0.62606,-1.06953 -0.87513,-1.63642 0.80536,-1.26919 1.57999,-1.5689 1.57999,-1.5689 l 1.86042,-0.64511 c -0.27508,-0.79328 -0.42466,-1.62993 -0.44151,-2.46938 l -1.9687,0.0395 c 0,0 -0.83048,-0.0127 -2.02573,-0.92423 0.0372,-0.61807 0.12216,-1.23326 0.25387,-1.83828 1.39756,-0.55341 2.20041,-0.34057 2.20041,-0.34057 l 1.8843,0.57162 c 0.24374,-0.80346 0.61449,-1.56825 1.09428,-2.25728 l -1.61593,-1.12521 c 0,0 -0.6644,-0.49845 -1.09561,-1.93841 0.39339,-0.47816 0.82373,-0.92592 1.2859,-1.33797 1.45594,0.37374 1.98035,1.01783 1.98035,1.01783 l 1.18844,1.57002 c 0.66946,-0.50675 1.41893,-0.90756 2.21209,-1.18298 l -0.64593,-1.86014 c 0,0 -0.24453,-0.79377 0.253,-2.21218 0.59932,-0.15562 1.21065,-0.26492 1.82676,-0.32661 0.9582,1.15814 1.00387,1.98746 1.00387,1.98746 l 0.0386,1.96872 c 0.83946,-0.0165 1.68139,0.0998 2.48496,0.34318 l 0.57079,-1.88455 c 0,0 0.26874,-0.7859 1.50497,-1.64098 0.57632,0.22637 1.13515,0.49728 1.66986,0.80951 0.0945,1.50017 -0.35606,2.19795 -0.35606,2.19795 l -1.12593,1.61543 c 0.68882,0.4801 1.30161,1.06904 1.80866,1.73827 l 1.56949,-1.18914 c 0,0 0.67935,-0.47785 2.18209,-0.44298 0.3332,0.52189 0.62606,1.06953 0.87513,1.63642 -0.80536,1.26919 -1.57999,1.5689 -1.57999,1.5689 l -1.86042,0.64511 c 0.27508,0.79328 0.42466,1.62993 0.44151,2.46938 l 1.9687,-0.0395 c 0,0 0.83048,0.0127 2.02573,0.92423 -0.0372,0.61807 -0.12216,1.23326 -0.25387,1.83828 -1.39756,0.55341 -2.20041,0.34057 -2.20041,0.34057 l -1.8843,-0.57162 c -0.24374,0.80346 -0.61449,1.56825 -1.09428,2.25728 l 1.61593,1.12521 c 0,0 0.6644,0.49845 1.09561,1.93841 -0.39339,0.47816 -0.82373,0.92592 -1.2859,1.33797 -1.45594,-0.37374 -1.98035,-1.01783 -1.98035,-1.01783 l -1.18844,-1.57002 c -0.66946,0.50675 -1.41893,0.90756 -2.21209,1.18298 l 0.64593,1.86014 c 0,0 0.24453,0.79377 -0.253,2.21218 -0.59932,0.15562 -1.21065,0.26492 -1.82676,0.32661 -0.9582,-1.15814 -1.00387,-1.98746 -1.00387,-1.98746 l -0.0386,-1.96872 c -0.83946,0.0165 -1.68139,-0.0998 -2.48496,-0.34318 l -0.57079,1.88455 c 0,0 -0.26874,0.7859 -1.50497,1.64098 -0.57632,-0.22637 -1.13515,-0.49728 -1.66986,-0.80951 -0.0945,-1.50017 0.35606,-2.19795 0.35606,-2.19795 l 1.12593,-1.61543 c -0.68882,-0.4801 -1.30161,-1.06904 -1.80866,-1.73827 l -1.56949,1.18914 m 19.1823,-6.08001 c 0,0 -0.80134,-0.27219 -1.62413,-1.54491 0.22296,-0.55993 0.49187,-1.10156 0.80314,-1.61765 1.51123,-0.1139 2.21246,0.35992 2.21246,0.35992 l 1.58765,1.17122 c 0.48467,-0.65699 1.08488,-1.22848 1.76482,-1.68039 l -1.09205,-1.64311 c 0,0 -0.43891,-0.7236 -0.25111,-2.22744 0.53071,-0.28561 1.08486,-0.52767 1.65504,-0.72294 1.23089,0.88415 1.4635,1.69786 1.4635,1.69786 l 0.46336,1.91773 c 0.79358,-0.19175 1.62072,-0.24373 2.43206,-0.15285 l 0.21961,-1.96065 c 0,0 0.12891,-0.83644 1.23941,-1.86773 0.59014,0.12234 1.17024,0.29311 1.73254,0.51004 0.37459,1.46849 0.0297,2.24135 0.0297,2.24135 l -0.87774,1.76691 c 0.73117,0.36322 1.39821,0.85507 1.96132,1.44621 l 1.42851,-1.36079 c 0,0 0.6364,-0.55788 2.15,-0.63408 0.37343,0.47305 0.70804,0.97675 0.99935,1.50436 -0.65697,1.36572 -1.41793,1.7361 -1.41793,1.7361 l -1.80813,0.78933 c 0.32663,0.74822 0.52146,1.55377 0.57285,2.36857 l 1.969,-0.12419 c 0,0 0.84611,-0.0183 2.05458,0.89625 -0.018,0.60242 -0.0855,1.20336 -0.20144,1.79478 -1.38114,0.62391 -2.20214,0.4185 -2.20214,0.4185 l -1.89248,-0.55758 c -0.23073,0.78313 -0.59929,1.52544 -1.08366,2.18265 l 1.58817,1.17051 c 0,0 0.65992,0.52985 0.9978,2.00723 -0.40103,0.4499 -0.83897,0.8669 -1.30798,1.2454 -1.45905,-0.40984 -1.95594,-1.09492 -1.95594,-1.09492 l -1.09132,-1.6436 c -0.68014,0.4516 -1.43961,0.78335 -2.23311,0.97545 l 0.46422,1.91752 c 0,0 0.16494,0.83008 -0.52586,2.17899 -0.5964,0.0869 -1.19992,0.12481 -1.8025,0.11329 -0.85426,-1.25182 -0.79454,-2.09601 -0.79454,-2.09601 l 0.22049,-1.96056 c -0.8113,-0.0912 -1.60634,-0.32529 -2.33767,-0.68818 l -0.87695,1.7673 c 0,0 -0.40721,0.7419 -1.80346,1.33119 -0.51271,-0.31681 -0.99942,-0.67569 -1.45361,-1.07185 0.15025,-1.50805 0.73864,-2.11635 0.73864,-2.11635 l 1.42912,-1.36015 c -0.56284,-0.59138 -1.02143,-1.28172 -1.3484,-2.0298 l -1.80778,0.79014 c 0,0 -0.78883,0.30658 -2.23721,-0.13949 -0.18912,-0.57226 -0.33127,-1.16002 -0.42456,-1.75545 1.08446,-1.05865 1.9262,-1.14643 1.9262,-1.14643 l 1.96905,-0.12331 c -0.051,-0.81482 0.0414,-1.63842 0.2718,-2.42165 l -1.89273,-0.55674 m 40.03664,5.57674 c 0,0 0.5095,0.60756 0.74033,2.06435 -0.52365,0.41431 -1.07318,0.79591 -1.64431,1.14184 -1.28438,-0.72519 -1.67568,-1.41484 -1.67568,-1.41484 l -0.92734,-1.71971 c -0.79136,0.42673 -1.63067,0.76446 -2.49704,1.00479 l 0.52226,1.88273 c 0,0 0.19543,0.76845 -0.22867,2.18113 -0.65156,0.14607 -1.31224,0.25145 -1.97691,0.31532 -0.84253,-1.21064 -0.89585,-2.00177 -0.89585,-2.00177 l -0.0894,-1.95177 c -0.89814,0.0411 -1.80087,-0.0188 -2.68571,-0.17814 l -0.34635,1.92288 c 0,0 -0.15734,0.77715 -1.15238,1.86592 -0.65041,-0.1511 -1.29139,-0.34281 -1.91794,-0.57366 -0.23382,-1.45631 0.0614,-2.19223 0.0614,-2.19223 l 0.76634,-1.79725 c -0.82704,-0.35265 -1.61439,-0.79827 -2.34245,-1.32578 l -1.14635,1.58217 c 0,0 -0.47896,0.63193 -1.84786,1.18114 -0.52044,-0.41834 -1.01476,-0.86917 -1.47911,-1.34901 0.42121,-1.41354 1.00649,-1.94849 1.00649,-1.94849 l 1.47025,-1.28677 c -0.59213,-0.67656 -1.10816,-1.41967 -1.53524,-2.21084 l -1.71931,0.92811 c 0,0 -0.7057,0.36153 -2.17733,0.26241 -0.2874,-0.60272 -0.53715,-1.22338 -0.74732,-1.85718 0.99281,-1.0908 1.75223,-1.31883 1.75223,-1.31883 l 1.88296,-0.52142 c -0.23994,-0.86647 -0.38244,-1.75989 -0.42396,-2.65802 l -1.95174,0.0902 c 0,0 -0.79267,0.0195 -2.07556,-0.70828 0.003,-0.66773 0.0469,-1.33529 0.13249,-1.99751 1.36777,-0.55202 2.15093,-0.42796 2.15093,-0.42796 l 1.92272,0.3472 c 0.15977,-0.88477 0.41902,-1.75155 0.77129,-2.57874 l -1.79759,-0.76554 c 0,0 -0.72266,-0.32633 -1.56271,-1.5387 0.29204,-0.60048 0.62157,-1.18273 0.98605,-1.74221 1.47183,0.0961 2.12361,0.54768 2.12361,0.54768 l 1.58167,1.14705 c 0.52783,-0.72783 1.13749,-1.39628 1.81378,-1.98871 l -1.28742,-1.46968 c 0,0 -0.5095,-0.60756 -0.74033,-2.06435 0.52365,-0.41431 1.07318,-0.79591 1.64431,-1.14184 1.28438,0.72519 1.67568,1.41484 1.67568,1.41484 l 0.92734,1.71971 c 0.79136,-0.42673 1.63067,-0.76446 2.49704,-1.00479 l -0.52226,-1.88273 c 0,0 -0.19543,-0.76845 0.22867,-2.18113 0.65156,-0.14607 1.31224,-0.25145 1.97691,-0.31532 0.84253,1.21064 0.89585,2.00177 0.89585,2.00177 l 0.0894,1.95177 c 0.89814,-0.0411 1.80087,0.0188 2.68571,0.17814 l 0.34635,-1.92288 c 0,0 0.15734,-0.77715 1.15238,-1.86592 0.65041,0.1511 1.29139,0.34281 1.91794,0.57366 0.23382,1.45631 -0.0614,2.19223 -0.0614,2.19223 l -0.76634,1.79725 c 0.82704,0.35265 1.61439,0.79827 2.34245,1.32578 l 1.14635,-1.58217 c 0,0 0.47896,-0.63193 1.84786,-1.18114 0.52044,0.41834 1.01476,0.86917 1.47911,1.34901 -0.42121,1.41354 -1.00649,1.94849 -1.00649,1.94849 l -1.47025,1.28677 c 0.59213,0.67656 1.10816,1.41967 1.53524,2.21084 l 1.71931,-0.92811 c 0,0 0.7057,-0.36153 2.17733,-0.26241 0.2874,0.60272 0.53715,1.22338 0.74732,1.85718 -0.99281,1.0908 -1.75223,1.31883 -1.75223,1.31883 l -1.88296,0.52142 c 0.23994,0.86647 0.38244,1.75989 0.42396,2.65802 l 1.95174,-0.0902 c 0,0 0.79267,-0.0195 2.07556,0.70828 -0.003,0.66773 -0.0469,1.33529 -0.13249,1.99751 -1.36777,0.55202 -2.15093,0.42796 -2.15093,0.42796 l -1.92272,-0.3472 c -0.15977,0.88477 -0.41902,1.75155 -0.77129,2.57874 l 1.79759,0.76554 c 0,0 0.72266,0.32633 1.56271,1.5387 -0.29204,0.60048 -0.62157,1.18273 -0.98605,1.74221 -1.47183,-0.0961 -2.12361,-0.54768 -2.12361,-0.54768 l -1.58167,-1.14705 c -0.52783,0.72783 -1.13749,1.39628 -1.81378,1.98871 l 1.28742,1.46968 M 0,0"
       id="path3162"
       inkscape:path-effect="#path-effect3164;#path-effect3168"
       inkscape:original-d="m 362.99195,377.53638 14.00878,-7.4916 8.17181,5.82679 11.67398,-3.32959 22.18059,-7.49159 -3.50219,8.32399"
       inkscape:connector-curvature="0"
       sodipodi:nodetypes="cccccc" />
    <g
       id="g4046"
       transform="matrix(1.1824245,0,0,1.1824245,5.974712,-66.540646)">
      <path
         transform="matrix(0.10986271,0,0,0.10986271,239.26611,333.40132)"
         d="m 695,324.86218 c 0,9.66499 -7.83502,17.5 -17.5,17.5 -9.66498,0 -17.5,-7.83501 -17.5,-17.5 0,-9.66498 7.83502,-17.5 17.5,-17.5 9.66498,0 17.5,7.83502 17.5,17.5 z"
         sodipodi:ry="17.5"
         sodipodi:rx="17.5"
         sodipodi:cy="324.86218"
         sodipodi:cx="677.5"
         id="path3170"
         style="opacity:0.98999999;fill:#000000;fill-opacity:1;stroke:#000000;stroke-width:1;stroke-miterlimit:4;stroke-opacity:1;stroke-dasharray:none"
         sodipodi:type="arc" />
      <path
         transform="matrix(0.09384106,0,0,0.09384106,266.9435,340.97735)"
         d="m 695,324.86218 c 0,9.66499 -7.83502,17.5 -17.5,17.5 -9.66498,0 -17.5,-7.83501 -17.5,-17.5 0,-9.66498 7.83502,-17.5 17.5,-17.5 9.66498,0 17.5,7.83502 17.5,17.5 z"
         sodipodi:ry="17.5"
         sodipodi:rx="17.5"
         sodipodi:cy="324.86218"
         sodipodi:cx="677.5"
         id="path3170-1"
         style="opacity:0.98999999;fill:#000000;fill-opacity:1;stroke:#000000;stroke-width:1;stroke-miterlimit:4;stroke-opacity:1;stroke-dasharray:none"
         sodipodi:type="arc" />
      <path
         transform="matrix(0.15970783,0,0,0.15970783,241.19226,313.01085)"
         d="m 695,324.86218 c 0,9.66499 -7.83502,17.5 -17.5,17.5 -9.66498,0 -17.5,-7.83501 -17.5,-17.5 0,-9.66498 7.83502,-17.5 17.5,-17.5 9.66498,0 17.5,7.83502 17.5,17.5 z"
         sodipodi:ry="17.5"
         sodipodi:rx="17.5"
         sodipodi:cy="324.86218"
         sodipodi:cx="677.5"
         id="path3170-7"
         style="opacity:0.98999999;fill:#000000;fill-opacity:1;stroke:#000000;stroke-width:1;stroke-miterlimit:4;stroke-opacity:1;stroke-dasharray:none"
         sodipodi:type="arc" />
    </g>
  </g>
  <g
     inkscape:label="Layer 1"
     inkscape:groupmode="layer"
     id="layer1">
    <rect
       style="opacity:0.43035398;color:#000000;fill:url(#linearGradient3499);fill-opacity:1;fill-rule:nonzero;stroke:none;stroke-width:1px;marker:none;visibility:visible;display:inline;overflow:visible;enable-background:accumulate"
       id="rect4232"
       width="120"
       height="120"
       x="341.75"
       y="319.11218"
       ry="0"
       inkscape:export-xdpi="375"
       inkscape:export-ydpi="375" />
    <path
       style="color:#000000;fill:#333333;fill-opacity:1;fill-rule:nonzero;stroke:none;stroke-width:1px;marker:none;visibility:visible;display:inline;overflow:visible;enable-background:accumulate"
       d="m 359.38646,349.03521 c -10.18125,6.56659 -16.92345,17.97191 -16.92345,31.03865 0,1.52024 0.26674,2.96291 0.44341,4.43409 l 117.35564,0 c 0.17665,-1.47118 0.44339,-2.91385 0.44339,-4.43409 0,-13.06674 -6.74218,-24.47206 -16.92344,-31.03865 l -84.39555,0 z m 20.61853,1.77364 43.1585,0 c 8.84334,0 15.96273,7.11938 15.96273,15.96274 0,8.84334 -7.11939,15.96272 -15.96273,15.96272 l -43.1585,0 c -8.84336,0 -15.96273,-7.11938 -15.96273,-15.96272 0,-8.84336 7.11937,-15.96274 15.96273,-15.96274 z"
       id="path3106"
       inkscape:export-filename="C:\Users\Robert\Documents\IT-Working\GCI 2016\Zulip\bot-icons\rect4232.png"
       inkscape:export-xdpi="375"
       inkscape:export-ydpi="375"
       inkscape:connector-curvature="0" />
    <path
       inkscape:connector-curvature="0"
       style="color:#000000;fill:#666666;fill-opacity:1;fill-rule:nonzero;stroke:none;stroke-width:0.40000001;marker:none;visibility:visible;display:inline;overflow:visible;enable-background:accumulate"
       d="m 460.26206,384.49279 -117.35564,0 c 2.20221,18.33799 17.55685,32.51668 36.50735,32.51668 l 44.34093,0 c 18.95049,0 34.30513,-14.17869 36.50736,-32.51668 z"
       id="path3049"
       inkscape:export-filename="C:\Users\Robert\Documents\IT-Working\GCI 2016\Zulip\bot-icons\rect4232.png"
       inkscape:export-xdpi="375"
       inkscape:export-ydpi="375" />
    <path
       inkscape:connector-curvature="0"
       style="color:#000000;fill:#666666;fill-opacity:1;fill-rule:nonzero;stroke:none;stroke-width:0.40000001;marker:none;visibility:visible;display:inline;overflow:visible;enable-background:accumulate"
       d="m 379.41377,343.10793 c -7.40396,0 -14.25837,2.19133 -20.02731,5.91213 l 84.39555,0 c -5.76895,-3.7208 -12.62335,-5.91213 -20.02731,-5.91213 l -44.34093,0 z"
       id="rect2985"
       inkscape:export-filename="C:\Users\Robert\Documents\IT-Working\GCI 2016\Zulip\bot-icons\rect4232.png"
       inkscape:export-xdpi="375"
       inkscape:export-ydpi="375" />
    <rect
       style="color:#000000;fill:#ff0000;fill-opacity:1;fill-rule:nonzero;stroke:#000000;stroke-width:2.36484909;stroke-miterlimit:4;stroke-opacity:1;stroke-dasharray:none;marker:none;visibility:visible;display:inline;overflow:visible;enable-background:accumulate"
       id="rect3051"
       width="82.769714"
       height="17.73637"
       x="360.19937"
       y="384.47766"
       ry="8.868185"
       inkscape:export-filename="C:\Users\Robert\Documents\IT-Working\GCI 2016\Zulip\bot-icons\rect4232.png"
       inkscape:export-xdpi="375"
       inkscape:export-ydpi="375" />
  </g>
</svg>
